<?xml version="1.0" standalone="no"?>
<!DOCTYPE svg PUBLIC "-//W3C//DTD SVG 20010904//EN"
 "http://www.w3.org/TR/2001/REC-SVG-20010904/DTD/svg10.dtd">
<svg version="1.0" xmlns="http://www.w3.org/2000/svg"
 width="2250.000000pt" height="2250.000000pt" viewBox="0 0 2250.000000 2250.000000"
 preserveAspectRatio="xMidYMid meet">
<metadata>
Created by potrace 1.14, written by Peter Selinger 2001-2017
</metadata>
<g transform="translate(0.000000,2250.000000) scale(0.100000,-0.100000)"
fill="#000000" stroke="none">
<path d="M11040 21458 c-41 -16 -163 -60 -270 -99 -107 -39 -204 -74 -215 -79
-56 -24 -206 -80 -214 -80 -5 0 -22 -6 -38 -14 -15 -8 -59 -27 -98 -41 -38
-15 -83 -33 -100 -40 -16 -7 -48 -20 -70 -29 -270 -111 -618 -299 -815 -441
-47 -33 -91 -65 -99 -69 -14 -9 -14 -10 7 184 4 36 7 97 7 137 0 61 -4 75 -23
96 -40 43 -122 22 -206 -54 -51 -45 -66 -59 -241 -228 -204 -196 -326 -286
-427 -316 -39 -11 -60 -10 -158 11 -14 2 -63 6 -110 8 -324 14 -676 -172 -904
-479 -82 -110 -124 -186 -173 -315 -13 -36 -28 -68 -32 -72 -24 -26 -311 -27
-490 -2 -258 35 -418 19 -531 -54 -81 -53 -456 -378 -695 -604 -330 -311
-1157 -1141 -1198 -1200 -16 -24 -38 -63 -49 -88 -11 -25 -24 -54 -29 -65 -5
-11 -32 -87 -60 -170 -77 -226 -118 -315 -187 -400 -174 -216 -362 -405 -787
-790 -162 -147 -450 -437 -536 -540 -131 -157 -235 -304 -301 -425 -14 -25
-41 -75 -61 -112 -112 -206 -272 -655 -332 -933 -3 -11 -18 -83 -35 -160 -17
-76 -33 -154 -36 -173 -3 -19 -8 -44 -10 -56 -2 -11 -7 -34 -9 -51 -3 -16 -12
-66 -20 -110 -8 -44 -17 -93 -19 -110 -7 -49 -18 -119 -21 -135 -5 -27 -25
-164 -30 -205 -3 -22 -10 -65 -15 -95 -5 -30 -12 -75 -15 -100 -7 -58 -19
-135 -44 -295 -11 -71 -23 -150 -26 -175 -4 -24 -8 -47 -10 -50 -1 -3 -6 -25
-9 -50 -3 -25 -8 -54 -10 -65 -50 -262 -48 -244 -28 -278 58 -97 256 -488 342
-677 156 -341 311 -761 374 -1017 49 -196 75 -303 81 -338 5 -22 9 -44 10 -50
9 -39 25 -125 29 -150 3 -16 9 -57 15 -90 15 -98 4 -162 -35 -197 -38 -33
-118 -41 -188 -18 -16 6 -31 9 -33 7 -5 -5 -4 -441 2 -507 17 -215 57 -349
201 -668 13 -29 24 -55 24 -57 0 -2 11 -28 24 -57 13 -29 38 -87 56 -128 17
-41 45 -103 61 -138 16 -34 29 -64 29 -66 0 -4 24 -59 80 -181 5 -11 32 -72
60 -135 28 -63 57 -128 65 -145 433 -958 663 -1528 876 -2171 l33 -102 41 -5
c70 -10 130 -43 192 -104 86 -86 139 -201 158 -343 3 -25 8 -52 10 -60 2 -8 7
-28 10 -45 2 -16 7 -39 10 -50 2 -11 9 -40 15 -65 60 -248 179 -536 298 -720
84 -129 233 -297 338 -380 94 -75 251 -160 374 -205 153 -54 183 -58 505 -61
165 -1 325 -5 355 -8 199 -24 373 -100 510 -225 142 -130 391 -253 639 -316
63 -16 77 -19 156 -30 22 -3 52 -8 67 -11 37 -8 287 -8 295 -1 5 6 104 -43
328 -163 39 -21 183 -95 320 -165 522 -267 735 -387 1003 -567 64 -43 77 -48
116 -45 58 6 96 26 123 65 l22 33 16 -25 c13 -20 16 -49 15 -148 -1 -68 -2
-129 -1 -136 1 -9 12 -11 41 -7 21 3 54 8 72 10 18 2 53 7 78 10 25 3 63 7 85
10 22 3 58 7 80 10 46 5 109 13 175 20 25 3 68 7 95 10 28 4 73 8 100 10 28 2
73 6 100 9 28 3 88 8 135 11 47 4 103 8 125 10 237 24 878 24 1115 0 19 -2 67
-6 106 -10 39 -3 80 -7 90 -9 11 -2 42 -7 69 -10 157 -20 527 -101 615 -134
19 -7 46 -3 105 14 97 29 143 35 260 38 210 6 458 -73 743 -236 46 -27 86 -48
88 -48 2 0 23 -12 45 -27 62 -41 254 -62 307 -34 37 20 40 75 7 178 -7 21 1
27 86 68 118 56 336 117 539 151 14 3 69 14 122 26 150 33 188 15 316 -151
109 -142 180 -200 262 -216 l35 -6 -5 98 c-7 143 5 254 34 318 26 58 61 86
131 107 42 12 220 15 362 6 l82 -6 -2 177 c-2 169 -1 178 23 224 15 28 83 107
165 190 77 78 178 185 225 237 121 137 345 358 415 411 33 25 91 65 128 89
l68 43 36 -39 c20 -22 64 -70 99 -109 35 -38 90 -99 123 -134 60 -64 60 -64
67 -37 16 67 -15 197 -79 323 -15 28 -71 99 -126 158 -55 59 -104 120 -110
136 -17 49 6 63 219 133 185 61 200 64 280 62 93 -2 155 -26 228 -86 20 -17
40 -30 44 -30 4 0 -9 30 -29 66 -49 90 -50 142 -4 183 38 34 119 75 171 86 19
4 107 9 195 10 142 2 166 4 213 25 58 25 134 101 158 159 27 63 53 177 56 248
2 37 5 70 8 73 9 8 391 469 456 550 262 326 571 787 769 1145 151 273 315 598
414 820 30 66 64 143 76 170 54 121 191 455 230 562 19 51 39 102 45 113 21
40 1 33 -74 -24 -252 -189 -441 -392 -636 -684 -83 -123 -116 -164 -154 -189
-64 -44 -114 -44 -180 -2 -27 16 -49 29 -50 27 -3 -4 -78 -240 -80 -252 -5
-24 -59 -186 -62 -186 -2 0 -1 15 1 33 3 30 6 61 20 244 4 40 3 73 0 73 -6 0
-88 -62 -180 -135 -66 -53 -446 -347 -686 -530 -14 -11 -208 -157 -430 -323
-222 -167 -411 -309 -419 -315 -68 -53 -797 -575 -920 -659 -14 -10 -70 -49
-125 -87 -117 -82 -673 -455 -790 -530 -44 -28 -87 -56 -95 -61 -229 -155
-352 -194 -457 -145 -54 25 -114 87 -146 153 -19 38 -40 54 -49 34 -1 -4 -57
-54 -122 -110 -157 -135 -220 -153 -267 -79 -17 27 -20 44 -16 102 3 39 8 78
12 88 6 15 4 16 -21 7 -35 -14 -94 -15 -164 -5 -150 21 -194 -4 -250 -147 -38
-99 -58 -99 -110 -2 -34 65 -65 94 -80 77 -6 -7 -18 -73 -46 -258 -3 -16 -8
-46 -11 -65 -7 -33 -8 -32 -14 23 -8 76 -37 110 -80 95 -38 -13 -93 -76 -126
-143 l-27 -54 -72 109 c-93 141 -166 230 -242 295 l-23 19 24 -49 c45 -89 74
-219 61 -271 -9 -36 -40 -30 -83 18 l-38 41 -8 -84 c-4 -46 -9 -93 -11 -104
-1 -11 -4 -37 -5 -57 -2 -33 -7 -39 -48 -60 -25 -13 -87 -64 -137 -114 -153
-153 -157 -154 -369 -169 -49 -3 -106 -8 -125 -10 -19 -2 -60 -7 -90 -10 -30
-4 -84 -10 -120 -15 -36 -5 -87 -12 -115 -15 -27 -4 -57 -8 -65 -10 -8 -3 -33
-7 -55 -10 -72 -11 -318 -63 -430 -93 l-110 -28 -135 33 c-136 34 -156 39
-375 88 -146 33 -152 34 -190 41 -16 3 -61 11 -100 19 -171 34 -373 70 -450
81 -50 6 -68 9 -115 19 -14 3 -45 7 -70 10 -25 3 -72 10 -105 15 -33 5 -80 12
-105 14 -63 7 -141 16 -170 21 -44 7 -180 21 -285 30 -38 3 -86 8 -105 10 -19
2 -66 7 -105 9 -251 19 -284 22 -400 37 -82 11 -288 51 -360 70 -22 6 -48 13
-57 14 -45 9 -325 108 -423 150 -158 68 -421 202 -535 275 -8 5 -38 23 -67 39
-56 33 -73 51 -48 51 26 0 93 38 136 77 80 73 116 176 89 258 l-13 38 -13 -31
c-31 -75 -109 -119 -274 -156 -63 -14 -126 -27 -140 -30 -14 -2 -41 -7 -61
-11 -36 -7 -39 -4 -136 92 -117 115 -466 450 -572 549 -41 38 -86 80 -101 94
-15 14 -84 79 -155 145 -70 66 -137 128 -148 137 -10 10 -74 68 -140 130 -163
152 -235 219 -277 258 -31 29 -206 192 -314 293 -382 357 -938 914 -1176 1177
-47 52 -106 117 -131 145 -50 54 -194 220 -219 251 -142 180 -282 460 -474
949 -37 94 -71 179 -76 190 -5 11 -28 67 -51 125 -23 58 -56 137 -74 175 -58
125 -88 190 -91 194 -2 2 -23 -17 -48 -42 -79 -82 -134 -76 -208 23 -39 51
-81 166 -82 219 -1 103 78 189 159 171 32 -7 91 -42 108 -65 5 -5 6 4 3 20 -3
17 -8 57 -12 90 -3 33 -8 62 -9 65 -2 3 -6 33 -10 65 -4 33 -8 71 -11 85 -6
37 -24 159 -30 205 -2 22 -6 47 -9 55 -2 8 -7 40 -10 70 -4 30 -11 87 -17 125
-5 39 -11 84 -13 100 -3 17 -7 41 -9 54 -3 13 -8 49 -12 80 -3 31 -8 64 -10
74 -1 10 -10 70 -19 135 -9 64 -19 128 -21 142 -3 14 -7 68 -9 121 -6 132 14
200 130 436 96 195 130 291 140 398 3 33 7 76 10 95 2 19 7 64 10 100 3 36 8
76 10 90 2 14 7 48 9 75 3 28 8 75 11 105 3 30 8 69 10 85 2 17 7 57 10 90 3
33 7 71 10 85 2 14 7 55 10 92 3 37 7 75 9 85 2 10 7 56 11 103 4 47 8 87 10
90 2 3 6 41 9 85 4 44 9 87 11 95 2 8 6 47 10 85 3 39 8 86 10 105 2 19 7 60
10 90 3 30 8 69 9 85 8 61 19 161 21 185 5 45 25 234 30 278 3 23 7 61 10 85
3 23 7 62 9 87 3 25 8 62 11 84 4 21 8 48 9 60 16 120 110 532 153 671 53 171
132 396 150 430 6 11 11 22 11 25 3 41 186 424 300 625 70 124 258 420 305
480 4 6 31 42 59 80 122 166 292 374 448 549 194 217 527 549 871 868 163 151
321 297 388 357 43 39 243 224 271 251 53 51 137 119 215 172 79 55 381 238
392 238 5 0 120 68 698 413 207 123 475 280 580 337 33 19 92 51 130 72 87 48
464 236 525 262 25 11 86 37 135 58 50 21 98 43 107 48 10 6 23 10 29 10 6 0
25 6 42 14 18 7 46 19 62 26 135 57 667 211 805 234 19 3 60 10 90 16 30 6 64
13 75 15 38 7 230 34 285 40 30 3 70 8 88 11 18 2 72 6 120 10 48 3 114 7 147
9 71 5 395 5 655 0 199 -3 297 10 391 52 91 41 156 129 184 251 13 53 19 418
7 464 -3 15 -7 15 -39 2 -19 -8 -62 -15 -95 -15 -87 -1 -174 45 -323 170 -119
100 -183 139 -300 184 l-60 23 -75 -28z m-8110 -13025 c42 -48 105 -169 161
-310 17 -43 34 -82 39 -88 5 -5 9 -14 11 -20 10 -46 81 -191 127 -259 47 -70
47 -68 15 -54 -117 51 -191 104 -234 167 -34 52 -45 90 -54 186 -10 107 -48
209 -131 346 -19 31 -34 62 -34 68 0 6 13 11 29 11 22 0 39 -11 71 -47z m-245
-76 c15 -45 28 -89 30 -97 2 -9 14 -49 28 -90 28 -85 47 -150 43 -150 -2 0
-45 53 -96 118 -51 64 -109 134 -128 154 -39 41 -44 74 -17 114 21 32 73 56
97 43 10 -5 29 -45 43 -92z"/>
<path d="M14288 20825 c-2 -2 -80 -5 -173 -7 -155 -4 -174 -6 -218 -28 -62
-31 -132 -106 -163 -175 -26 -56 -32 -62 -50 -47 -15 15 -94 43 -138 50 -98
16 -448 1 -539 -23 -104 -27 -218 -120 -262 -212 -64 -134 -52 -293 31 -425
15 -24 68 -83 118 -133 145 -143 311 -247 535 -337 150 -59 379 -116 536 -133
28 -3 72 -8 100 -11 27 -3 95 -7 151 -9 101 -3 114 -7 198 -55 17 -10 81 -46
141 -80 598 -341 1297 -804 2302 -1527 109 -79 317 -228 463 -333 564 -404
678 -481 729 -495 103 -27 220 3 430 111 80 41 152 74 161 74 14 0 16 -19 13
-167 -4 -295 34 -457 218 -924 129 -327 201 -423 436 -581 120 -80 263 -215
263 -247 0 -5 3 -11 8 -13 13 -6 69 -122 90 -188 12 -36 26 -94 32 -130 12
-64 15 -243 5 -308 -14 -100 -18 -122 -31 -177 -9 -33 -24 -86 -35 -118 l-19
-57 76 -152 c41 -84 100 -195 130 -248 71 -123 75 -129 101 -167 13 -17 23
-34 23 -37 0 -9 102 -147 174 -236 92 -114 256 -273 327 -318 90 -57 101 -80
103 -211 2 -86 6 -115 24 -153 28 -60 74 -96 115 -92 46 6 87 37 141 108 l38
50 -7 -60 c-8 -82 -15 -143 -21 -184 -3 -19 -7 -57 -10 -85 -2 -27 -11 -102
-19 -166 -38 -307 -42 -718 -10 -889 20 -108 43 -176 42 -124 -1 33 12 222 18
257 2 12 6 54 10 92 11 116 15 154 31 290 25 203 28 224 49 350 3 17 10 59 15
95 49 304 177 789 264 992 21 50 21 49 -21 31 -60 -25 -89 -53 -153 -148 -104
-155 -135 -185 -191 -185 l-25 0 0 213 c-1 200 -10 526 -18 592 -2 17 -7 82
-11 145 -4 63 -9 123 -10 132 -2 10 -6 49 -10 87 -3 38 -7 84 -10 102 -2 19
-6 63 -10 99 -3 36 -8 76 -10 90 -5 28 -23 179 -31 255 -2 28 -7 61 -9 75 -4
25 -11 72 -20 144 -2 21 -7 55 -9 75 -3 20 -8 61 -12 91 -7 60 -9 73 -18 140
-10 68 -15 110 -22 169 -3 30 -7 62 -9 71 -2 9 -6 50 -10 91 -3 41 -10 90 -14
110 -5 20 -111 200 -237 400 -125 200 -242 387 -259 414 -16 28 -251 402 -520
833 -270 430 -494 790 -500 800 -5 10 -28 47 -51 82 -105 167 -353 564 -402
645 -144 233 -485 587 -837 866 -206 164 -504 364 -730 489 -185 103 -517 260
-690 327 -49 19 -103 41 -120 48 -84 37 -422 147 -610 199 -187 51 -319 78
-445 92 -30 3 -71 8 -90 11 -36 6 -827 13 -832 8z"/>
<path d="M16415 14043 c-41 -28 -63 -66 -70 -123 -14 -113 94 -174 205 -117
98 50 117 207 30 252 -44 23 -122 17 -165 -12z"/>
<path d="M15930 13766 c-88 -28 -145 -83 -174 -170 -44 -131 -11 -240 89 -294
37 -20 164 -21 219 -3 92 32 164 138 174 258 8 99 -30 166 -115 205 -47 21
-133 22 -193 4z"/>
<path d="M10180 13210 c-6 -4 -9 -329 -7 -934 l2 -929 53 -1 52 -2 -2 936 -3
935 -42 1 c-24 0 -47 -2 -53 -6z"/>
<path d="M11480 13211 c-4 -50 -1 -1852 4 -1859 5 -9 71 -10 80 -1 2 2 6 41 8
86 2 45 7 85 10 88 3 4 13 -16 22 -43 19 -56 56 -102 103 -126 35 -17 142 -35
183 -30 14 2 44 5 67 8 118 15 189 100 218 261 21 123 25 580 6 730 -32 249
-114 329 -330 322 -134 -5 -209 -50 -242 -146 -7 -18 -14 -28 -18 -23 -3 6 -6
174 -5 374 l0 364 -53 1 c-29 0 -53 -3 -53 -6z m493 -685 c93 -47 111 -134
111 -531 1 -248 -6 -374 -22 -416 -5 -13 -9 -26 -9 -29 0 -3 -8 -22 -17 -42
-27 -56 -88 -82 -193 -81 -95 0 -138 16 -181 69 -30 36 -47 81 -57 147 -3 20
-7 54 -10 75 -7 47 -7 451 0 512 2 25 7 66 10 92 11 95 48 168 99 196 50 27
67 31 149 30 59 -1 89 -6 120 -22z"/>
<path d="M6296 13072 c-7 -12 -4 -1722 3 -1723 3 -1 29 -2 56 -2 l50 -2 0 393
c0 215 2 392 5 393 3 1 104 2 225 2 l220 2 1 53 0 52 -225 0 -226 0 0 365 0
365 253 0 252 0 0 54 0 54 -305 0 c-168 0 -307 -3 -309 -6z"/>
<path d="M9702 13002 c-22 -3 -23 -8 -22 -70 1 -37 1 -120 1 -184 l-1 -118
-80 0 -80 0 0 -50 0 -50 80 0 80 0 0 -72 c1 -40 1 -305 1 -590 0 -397 2 -517
12 -520 7 -2 30 -4 52 -3 l40 1 3 592 2 591 92 3 92 3 1 35 c2 59 1 60 -96 60
l-89 0 0 184 0 184 -32 3 c-18 2 -43 3 -56 1z"/>
<path d="M15137 12984 c-1 -1 -18 -4 -37 -7 -87 -11 -169 -72 -210 -154 -37
-73 -35 -179 5 -252 46 -83 116 -132 215 -149 l45 -8 1 -469 c0 -259 -2 -476
-4 -482 -2 -7 -9 -13 -16 -13 -18 0 -166 -72 -246 -119 -517 -306 -814 -892
-756 -1490 39 -406 235 -778 550 -1045 197 -167 484 -303 716 -340 19 -3 46
-8 60 -12 40 -10 370 -14 420 -4 25 4 63 10 86 13 209 29 507 165 699 320 374
303 586 749 583 1228 0 64 -5 143 -9 175 -5 33 -12 74 -14 93 -14 93 -69 267
-117 371 -83 180 -180 315 -339 471 -144 142 -330 262 -521 338 l-28 11 0 478
0 479 49 6 c95 11 176 72 217 162 28 61 33 104 21 170 -16 93 -81 170 -176
209 -43 18 -82 19 -619 20 -316 0 -574 0 -575 0z m1167 -133 c52 -22 80 -60
93 -123 9 -41 7 -54 -12 -96 -15 -33 -36 -57 -61 -73 l-39 -24 -580 -3 c-640
-3 -637 -3 -689 59 -75 88 -41 226 64 268 15 6 253 10 603 10 547 1 581 0 621
-18z m-195 -939 c0 -279 0 -514 0 -523 1 -10 13 -19 32 -23 97 -19 396 -184
476 -262 10 -11 34 -33 53 -49 146 -128 267 -305 370 -540 54 -121 92 -327 94
-500 1 -172 -9 -257 -46 -400 -135 -511 -562 -922 -1078 -1039 -133 -30 -394
-42 -510 -24 -25 4 -61 10 -80 13 -126 21 -311 89 -439 161 -462 259 -746 749
-741 1274 1 140 10 211 46 355 114 452 460 834 904 995 l75 28 3 520 2 520
419 0 419 0 1 -506z"/>
<path d="M15250 11154 c-167 -48 -281 -115 -406 -239 -89 -89 -127 -139 -178
-241 -38 -77 -40 -113 -6 -149 52 -56 116 -33 161 57 105 209 272 344 499 404
46 12 95 31 107 42 51 45 14 140 -57 147 -19 1 -73 -8 -120 -21z"/>
<path d="M16185 10578 c-169 -15 -332 -68 -522 -168 -204 -108 -310 -126 -602
-105 -53 4 -112 8 -131 10 -19 2 -76 5 -126 6 -126 2 -196 -19 -251 -77 -61
-63 -78 -126 -78 -284 1 -202 33 -347 117 -525 25 -53 78 -147 88 -155 3 -3
20 -25 38 -50 65 -90 206 -223 296 -280 108 -69 270 -143 337 -155 15 -3 39
-9 53 -15 14 -5 49 -12 78 -15 29 -4 56 -8 60 -11 10 -6 246 -6 274 0 12 2 45
7 75 11 215 27 477 162 648 333 93 93 199 232 179 233 -84 4 -125 13 -150 30
-62 45 -71 118 -21 172 34 35 72 45 175 45 46 0 91 1 100 1 19 1 35 25 42 65
3 14 7 34 10 44 11 37 26 141 30 210 4 60 23 54 -161 53 -126 -1 -175 12 -208
57 -24 33 -25 90 -2 125 31 48 70 60 205 62 67 1 125 5 128 8 13 12 -61 141
-112 196 -108 117 -236 167 -464 185 -14 1 -61 -2 -105 -6z"/>
<path d="M7445 12643 c-107 -23 -173 -90 -205 -205 -15 -56 -25 -62 -27 -15 0
17 -2 71 -3 120 l-3 87 -43 0 c-35 0 -44 -4 -45 -17 0 -25 -1 -1223 0 -1249 1
-21 3 -21 92 -15 14 1 15 43 16 384 0 210 3 405 6 432 21 186 52 266 124 321
34 26 121 54 154 49 13 -2 15 8 15 56 l0 59 -31 -1 c-16 -1 -39 -3 -50 -6z"/>
<path d="M7879 12636 c-182 -40 -221 -153 -220 -646 1 -468 27 -574 158 -632
77 -34 248 -42 357 -17 174 41 210 148 210 629 1 519 -31 617 -214 665 -62 16
-221 17 -291 1z m291 -110 c18 -10 40 -24 46 -31 20 -20 51 -125 54 -185 7
-106 5 -596 -2 -668 -8 -78 -33 -146 -64 -174 -53 -47 -247 -57 -329 -18 -70
34 -100 118 -106 300 -5 172 1 527 11 598 10 73 36 138 64 161 52 43 255 54
326 17z"/>
<path d="M8937 12640 c-50 -13 -87 -33 -114 -62 -27 -29 -63 -94 -63 -113 0
-8 -4 -15 -10 -15 -5 0 -11 23 -11 50 -1 28 -3 59 -4 70 -1 11 -3 29 -4 40 -1
17 -8 20 -44 20 l-43 0 1 -641 0 -642 53 -1 52 -2 0 46 c-2 216 9 902 14 930
24 122 77 199 154 219 60 17 164 11 212 -10 43 -19 70 -64 85 -139 6 -26 14
-583 15 -1020 0 -23 3 -25 48 -24 26 1 50 2 53 3 8 2 3 988 -6 1046 -26 179
-95 244 -263 251 -48 2 -104 -1 -125 -6z"/>
<path d="M10697 12644 c-1 -2 -27 -6 -57 -9 -90 -10 -91 -10 -89 -65 2 -46 3
-48 28 -43 97 18 140 21 251 20 223 -3 245 -32 256 -335 l6 -163 -88 6 c-130
8 -275 8 -315 0 -145 -30 -192 -125 -185 -375 4 -145 5 -155 31 -216 41 -98
112 -134 265 -135 166 -2 238 45 284 185 4 10 8 17 10 15 3 -3 10 -81 15 -174
1 -8 46 -12 82 -6 7 1 3 985 -4 1026 -3 17 -8 46 -12 65 -17 101 -81 169 -179
194 -52 13 -288 21 -299 10z m390 -816 c-10 -213 -38 -321 -94 -362 -60 -44
-228 -55 -300 -19 -66 32 -78 66 -80 238 -2 168 8 215 54 252 36 30 41 30 247
32 l179 1 -6 -142z"/>
<path d="M12621 12640 c-107 -23 -178 -83 -207 -175 -20 -62 -28 -259 -13
-323 19 -86 62 -142 124 -161 25 -9 98 -22 295 -56 83 -14 101 -57 97 -240 -3
-152 -22 -201 -95 -237 -41 -20 -61 -23 -162 -21 -63 0 -141 6 -174 12 -32 6
-61 9 -65 6 -6 -3 -7 -57 -2 -86 2 -12 161 -31 260 -31 256 -2 349 97 349 370
0 182 -30 272 -103 306 -20 10 -105 29 -188 43 -173 28 -196 37 -216 78 -20
41 -27 219 -11 285 15 63 59 111 119 128 46 14 204 14 279 1 26 -5 53 -10 61
-12 11 -1 15 10 16 45 l0 47 -50 11 c-68 15 -260 21 -314 10z"/>
<path d="M11299 10795 l0 -380 -25 50 c-53 107 -129 146 -275 141 -170 -6
-260 -83 -283 -242 -4 -22 -9 -51 -12 -64 -11 -44 -13 -602 -3 -685 31 -248
116 -334 324 -330 139 3 216 47 251 144 23 63 34 72 35 30 2 -76 7 -138 13
-147 4 -7 40 -9 79 -3 4 0 7 420 7 931 0 737 -3 930 -12 931 -7 0 -32 1 -55 2
l-43 2 -1 -380z m-147 -307 c69 -31 96 -71 124 -180 12 -47 17 -126 19 -313 4
-311 -9 -439 -50 -510 -31 -54 -55 -74 -107 -89 -60 -18 -177 -13 -225 10 -92
46 -115 150 -116 529 0 499 32 574 245 573 44 -1 83 -8 110 -20z"/>
<path d="M5630 10991 c-7 -25 -14 -55 -16 -66 -11 -55 -18 -88 -40 -180 -13
-55 -50 -221 -83 -370 -33 -148 -79 -351 -101 -450 -79 -347 -91 -400 -96
-425 -3 -14 -7 -33 -10 -42 -3 -9 -7 -27 -9 -40 -11 -54 -17 -84 -21 -99 -3
-12 6 -15 51 -16 48 0 56 3 60 21 7 30 115 509 115 510 0 1 442 -2 451 -3 6
-1 33 -104 45 -171 2 -9 17 -79 35 -155 17 -77 33 -151 36 -165 6 -34 8 -35
69 -36 60 0 57 -8 35 86 -5 25 -12 56 -14 70 -3 14 -10 43 -15 65 -6 22 -13
51 -15 65 -4 23 -29 131 -77 335 -10 44 -21 91 -23 105 -3 14 -14 65 -26 113
-12 49 -23 103 -26 120 -3 18 -13 59 -22 92 -8 33 -17 69 -19 80 -13 71 -126
564 -133 580 -7 17 -18 20 -74 21 l-65 2 -12 -47z m109 -258 c26 -123 89 -410
101 -458 15 -60 51 -226 57 -259 2 -16 9 -40 14 -53 6 -16 5 -23 -4 -24 -60
-3 -399 -1 -402 3 -3 2 20 114 50 249 31 134 67 296 81 359 27 124 28 128 46
210 6 30 13 58 14 63 1 4 2 13 3 20 3 26 22 -25 40 -110z"/>
<path d="M8749 10948 c-1 -7 -1 -91 -1 -185 l0 -173 -78 0 c-85 0 -87 -1 -86
-60 l1 -35 81 -3 81 -3 1 -557 c0 -306 1 -573 1 -593 l1 -36 53 1 52 2 0 589
0 590 92 3 c101 3 104 5 94 75 l-3 27 -92 0 -91 0 0 183 0 182 -52 3 c-38 2
-53 -1 -54 -10z"/>
<path d="M6662 10600 c-24 -5 -58 -17 -75 -28 -37 -21 -96 -103 -104 -145 -10
-48 -22 -15 -25 66 -1 43 -5 82 -9 88 -3 6 -24 9 -45 7 l-39 -3 0 -640 0 -640
53 0 c40 -1 52 3 53 15 0 8 2 215 4 460 2 245 6 459 9 477 24 145 73 218 162
243 49 14 156 9 195 -10 28 -13 63 -66 75 -115 4 -17 9 -262 11 -545 2 -283 6
-517 9 -519 7 -7 94 -9 99 -1 2 3 5 204 6 446 1 241 6 471 10 511 20 158 84
231 212 241 102 7 172 -20 202 -78 25 -49 28 -99 32 -560 2 -256 4 -487 6
-515 l2 -50 53 0 53 -1 -2 491 c-1 326 -5 515 -13 565 -30 185 -109 250 -296
245 -127 -3 -212 -57 -247 -156 -10 -27 -21 -49 -24 -49 -4 0 -11 19 -17 43
-27 105 -94 153 -227 161 -44 3 -100 1 -123 -4z"/>
<path d="M8050 10595 c-105 -29 -151 -64 -189 -145 -23 -51 -25 -65 -26 -205
0 -157 8 -201 47 -250 23 -29 82 -62 124 -69 176 -29 277 -48 298 -56 39 -15
54 -82 52 -225 -4 -175 -37 -234 -143 -254 -68 -13 -276 -4 -344 15 -14 4 -16
-4 -15 -43 1 -43 3 -47 31 -55 49 -13 109 -19 207 -22 285 -8 378 91 373 394
-2 132 -22 214 -61 253 -27 28 -90 52 -164 62 -221 32 -257 43 -280 84 -33 62
-30 274 6 342 16 32 55 61 102 77 38 13 254 8 315 -7 37 -9 37 -9 38 23 1 34
-1 59 -6 65 -23 23 -297 35 -365 16z"/>
<path d="M9469 10605 c-2 -2 -21 -6 -43 -9 -127 -20 -203 -113 -221 -271 -3
-27 -8 -66 -10 -85 -5 -42 -6 -502 -1 -545 2 -16 7 -61 11 -100 8 -71 36 -161
63 -203 22 -34 90 -77 147 -92 50 -14 245 -18 315 -7 19 3 56 9 83 12 33 5 47
12 48 24 1 9 2 31 3 50 l2 33 -45 -7 c-25 -3 -70 -10 -100 -14 -88 -13 -241
-5 -289 14 -100 41 -123 112 -136 428 l-3 77 298 0 299 0 1 23 c1 34 -2 235
-6 302 -10 212 -56 311 -165 351 -39 14 -241 30 -251 19z m216 -121 c70 -36
95 -129 100 -366 l2 -118 -244 0 c-224 0 -243 1 -244 18 -6 86 7 299 21 352
28 103 93 140 240 137 64 -2 95 -7 125 -23z"/>
<path d="M10456 10595 c-95 -24 -160 -96 -187 -207 -6 -27 -14 -47 -16 -44 -3
3 -7 54 -9 113 -2 59 -6 114 -9 121 -2 7 -22 12 -45 12 l-40 0 0 -643 0 -643
53 0 52 1 1 355 c1 195 5 396 8 445 11 148 42 254 94 316 23 28 110 69 147 69
44 0 51 10 52 68 0 51 0 52 -29 50 -16 -1 -48 -7 -72 -13z"/>
<path d="M11858 10605 c-2 -2 -28 -5 -58 -8 -30 -3 -70 -9 -87 -13 -32 -6 -33
-8 -33 -56 0 -47 1 -50 23 -44 45 13 145 21 257 21 218 0 247 -40 254 -347 l4
-147 -202 2 c-110 1 -214 -1 -229 -5 -34 -8 -91 -50 -112 -81 -28 -44 -45
-140 -45 -262 -1 -124 0 -130 20 -205 31 -119 111 -171 264 -173 161 -2 242
40 282 143 9 25 21 49 26 55 7 7 11 -57 11 -157 0 -10 2 -18 6 -19 27 -4 68
-6 76 -2 12 4 13 923 1 1013 -29 223 -100 281 -343 285 -62 1 -114 1 -115 0z
m357 -770 c0 -174 -23 -312 -62 -373 -34 -51 -80 -71 -177 -76 -125 -7 -193
18 -217 80 -33 85 -29 326 5 393 33 62 59 69 281 67 l170 -1 0 -90z"/>
<path d="M12877 10593 c-62 -18 -120 -76 -144 -142 -10 -28 -20 -51 -23 -51
-4 0 -7 35 -8 78 -3 106 -6 112 -52 112 -28 0 -39 -5 -41 -17 -3 -15 -3 -1221
0 -1258 1 -11 100 -17 102 -6 1 3 2 204 4 446 1 242 5 463 9 490 21 149 76
233 166 255 93 22 196 3 229 -42 48 -67 53 -137 55 -722 l1 -429 48 -2 c26 -2
50 1 53 6 3 5 6 197 6 426 1 230 5 456 10 503 19 194 76 261 226 266 83 3 144
-14 172 -48 45 -55 51 -135 53 -743 l2 -410 53 -1 53 -1 -4 521 c-2 286 -8
539 -12 561 -12 65 -45 133 -81 165 -45 39 -102 54 -204 54 -94 -1 -153 -21
-202 -68 -26 -25 -68 -102 -68 -125 0 -28 -19 -7 -25 27 -10 56 -53 114 -108
141 -59 29 -196 37 -270 14z"/>
</g>
</svg>
